<mxfile host="www.draw.io" modified="2020-02-25T05:34:53.079Z" agent="Mozilla/5.0 (Windows NT 10.0; Win64; x64) AppleWebKit/537.36 (KHTML, like Gecko) Chrome/74.0.3729.131 Safari/537.36" etag="lnmYoA7gSHuvZaxMZOhR" version="12.7.4" type="github" pages="2">
  <diagram id="CEhrORci5TCC4d7FeP7T" name="Page-1">
    <mxGraphModel dx="1038" dy="548" grid="1" gridSize="10" guides="1" tooltips="1" connect="1" arrows="1" fold="1" page="1" pageScale="1" pageWidth="827" pageHeight="1169" math="0" shadow="0">
      <root>
        <mxCell id="0" />
        <mxCell id="1" parent="0" />
        <mxCell id="YfSGc-pqgDhnCT7YDvDX-6" value="&lt;span style=&quot;&quot;&gt;胜蓝&lt;/span&gt;" style="shape=umlLifeline;perimeter=lifelinePerimeter;whiteSpace=wrap;html=1;container=1;collapsible=0;recursiveResize=0;outlineConnect=0;align=center;fillColor=#dae8fc;strokeColor=#6c8ebf;" parent="1" vertex="1">
          <mxGeometry x="60" y="220" width="100" height="700" as="geometry" />
        </mxCell>
        <mxCell id="YfSGc-pqgDhnCT7YDvDX-11" value="通知" style="html=1;verticalAlign=bottom;startArrow=circle;startFill=1;endArrow=open;startSize=6;endSize=8;fillColor=#d5e8d4;strokeColor=#82b366;" parent="YfSGc-pqgDhnCT7YDvDX-6" target="YfSGc-pqgDhnCT7YDvDX-9" edge="1">
          <mxGeometry width="80" relative="1" as="geometry">
            <mxPoint x="50" y="100" as="sourcePoint" />
            <mxPoint x="130" y="100" as="targetPoint" />
          </mxGeometry>
        </mxCell>
        <mxCell id="YfSGc-pqgDhnCT7YDvDX-13" value="通知" style="html=1;verticalAlign=bottom;startArrow=circle;startFill=1;endArrow=open;startSize=6;endSize=8;fillColor=#f8cecc;strokeColor=#b85450;" parent="YfSGc-pqgDhnCT7YDvDX-6" target="YfSGc-pqgDhnCT7YDvDX-8" edge="1">
          <mxGeometry width="80" relative="1" as="geometry">
            <mxPoint x="50" y="210" as="sourcePoint" />
            <mxPoint x="130" y="210" as="targetPoint" />
          </mxGeometry>
        </mxCell>
        <mxCell id="YfSGc-pqgDhnCT7YDvDX-7" value="新能源/新宝骏/LLB APP" style="shape=umlLifeline;perimeter=lifelinePerimeter;whiteSpace=wrap;html=1;container=1;collapsible=0;recursiveResize=0;outlineConnect=0;align=center;fillColor=#dae8fc;strokeColor=#6c8ebf;" parent="1" vertex="1">
          <mxGeometry x="190" y="220" width="100" height="700" as="geometry" />
        </mxCell>
        <mxCell id="YfSGc-pqgDhnCT7YDvDX-8" value="数据商店" style="shape=umlLifeline;perimeter=lifelinePerimeter;whiteSpace=wrap;html=1;container=1;collapsible=0;recursiveResize=0;outlineConnect=0;align=center;fillColor=#dae8fc;strokeColor=#6c8ebf;" parent="1" vertex="1">
          <mxGeometry x="310" y="220" width="100" height="700" as="geometry" />
        </mxCell>
        <mxCell id="YfSGc-pqgDhnCT7YDvDX-14" value="通知" style="html=1;verticalAlign=bottom;endArrow=block;fillColor=#f8cecc;strokeColor=#b85450;" parent="YfSGc-pqgDhnCT7YDvDX-8" target="YfSGc-pqgDhnCT7YDvDX-9" edge="1">
          <mxGeometry width="80" relative="1" as="geometry">
            <mxPoint x="50" y="220" as="sourcePoint" />
            <mxPoint x="130" y="220" as="targetPoint" />
          </mxGeometry>
        </mxCell>
        <mxCell id="YfSGc-pqgDhnCT7YDvDX-9" value="APP后台" style="shape=umlLifeline;perimeter=lifelinePerimeter;whiteSpace=wrap;html=1;container=1;collapsible=0;recursiveResize=0;outlineConnect=0;align=center;fillColor=#dae8fc;strokeColor=#6c8ebf;" parent="1" vertex="1">
          <mxGeometry x="440" y="220" width="100" height="700" as="geometry" />
        </mxCell>
        <mxCell id="YfSGc-pqgDhnCT7YDvDX-12" value="通知APP" style="html=1;verticalAlign=bottom;startArrow=oval;startFill=1;endArrow=block;startSize=8;fillColor=#d5e8d4;strokeColor=#82b366;" parent="YfSGc-pqgDhnCT7YDvDX-9" target="YfSGc-pqgDhnCT7YDvDX-7" edge="1">
          <mxGeometry width="60" relative="1" as="geometry">
            <mxPoint x="50" y="130" as="sourcePoint" />
            <mxPoint x="110" y="130" as="targetPoint" />
          </mxGeometry>
        </mxCell>
        <mxCell id="YfSGc-pqgDhnCT7YDvDX-15" value="通知" style="html=1;verticalAlign=bottom;endArrow=block;fillColor=#f8cecc;strokeColor=#b85450;" parent="YfSGc-pqgDhnCT7YDvDX-9" target="YfSGc-pqgDhnCT7YDvDX-7" edge="1">
          <mxGeometry width="80" relative="1" as="geometry">
            <mxPoint x="50" y="240" as="sourcePoint" />
            <mxPoint x="130" y="240" as="targetPoint" />
          </mxGeometry>
        </mxCell>
        <mxCell id="YfSGc-pqgDhnCT7YDvDX-16" value="原来" style="shape=umlFrame;whiteSpace=wrap;html=1;align=center;fillColor=#d5e8d4;strokeColor=#82b366;" parent="1" vertex="1">
          <mxGeometry x="40" y="280" width="540" height="100" as="geometry" />
        </mxCell>
        <mxCell id="YfSGc-pqgDhnCT7YDvDX-17" value="新方案" style="shape=umlFrame;whiteSpace=wrap;html=1;align=center;fillColor=#f8cecc;strokeColor=#b85450;" parent="1" vertex="1">
          <mxGeometry x="40" y="410" width="540" height="110" as="geometry" />
        </mxCell>
        <mxCell id="YfSGc-pqgDhnCT7YDvDX-31" value="&lt;span&gt;胜蓝 H5 &amp;amp; 后台&lt;/span&gt;" style="shape=umlLifeline;perimeter=lifelinePerimeter;whiteSpace=wrap;html=1;container=1;collapsible=0;recursiveResize=0;outlineConnect=0;align=center;fillColor=#f0a30a;strokeColor=#BD7000;fontColor=#ffffff;" parent="1" vertex="1">
          <mxGeometry x="940" y="210" width="100" height="700" as="geometry" />
        </mxCell>
        <mxCell id="YfSGc-pqgDhnCT7YDvDX-43" value="" style="html=1;points=[];perimeter=orthogonalPerimeter;align=center;fillColor=#d5e8d4;strokeColor=#82b366;" parent="YfSGc-pqgDhnCT7YDvDX-31" vertex="1">
          <mxGeometry x="45" y="60" width="10" height="132" as="geometry" />
        </mxCell>
        <mxCell id="YfSGc-pqgDhnCT7YDvDX-48" value="1，下单" style="html=1;verticalAlign=bottom;startArrow=oval;startFill=1;endArrow=open;startSize=6;endSize=8;fillColor=#d5e8d4;strokeColor=#82b366;strokeWidth=3;" parent="YfSGc-pqgDhnCT7YDvDX-31" edge="1">
          <mxGeometry width="80" relative="1" as="geometry">
            <mxPoint x="50" y="162" as="sourcePoint" />
            <mxPoint x="456.5" y="162" as="targetPoint" />
          </mxGeometry>
        </mxCell>
        <mxCell id="YfSGc-pqgDhnCT7YDvDX-51" value="" style="html=1;points=[];perimeter=orthogonalPerimeter;align=center;fillColor=#ffe6cc;strokeColor=#d79b00;" parent="YfSGc-pqgDhnCT7YDvDX-31" vertex="1">
          <mxGeometry x="45" y="312" width="10" height="80" as="geometry" />
        </mxCell>
        <mxCell id="YfSGc-pqgDhnCT7YDvDX-52" value="3,推送" style="html=1;verticalAlign=bottom;startArrow=oval;startFill=1;endArrow=open;startSize=6;endSize=8;fillColor=#ffe6cc;strokeColor=#d79b00;strokeWidth=3;" parent="YfSGc-pqgDhnCT7YDvDX-31" edge="1">
          <mxGeometry width="80" relative="1" as="geometry">
            <mxPoint x="50" y="332" as="sourcePoint" />
            <mxPoint x="316.5" y="332" as="targetPoint" />
          </mxGeometry>
        </mxCell>
        <mxCell id="YfSGc-pqgDhnCT7YDvDX-60" value="" style="html=1;points=[];perimeter=orthogonalPerimeter;align=center;fillColor=#f8cecc;strokeColor=#b85450;" parent="YfSGc-pqgDhnCT7YDvDX-31" vertex="1">
          <mxGeometry x="45" y="202" width="10" height="100" as="geometry" />
        </mxCell>
        <mxCell id="YfSGc-pqgDhnCT7YDvDX-62" value="调用收银台&lt;br&gt;JSSDK" style="html=1;verticalAlign=bottom;startArrow=oval;startFill=1;endArrow=block;startSize=8;fillColor=#f8cecc;strokeColor=#b85450;entryX=0.535;entryY=0.321;entryDx=0;entryDy=0;entryPerimeter=0;strokeWidth=3;" parent="YfSGc-pqgDhnCT7YDvDX-31" target="YfSGc-pqgDhnCT7YDvDX-34" edge="1">
          <mxGeometry width="60" relative="1" as="geometry">
            <mxPoint x="50" y="222" as="sourcePoint" />
            <mxPoint x="-85.5" y="222" as="targetPoint" />
          </mxGeometry>
        </mxCell>
        <mxCell id="YfSGc-pqgDhnCT7YDvDX-65" value="查询用户信息" style="html=1;verticalAlign=bottom;startArrow=oval;startFill=1;endArrow=block;startSize=8;fillColor=#d5e8d4;strokeColor=#82b366;" parent="YfSGc-pqgDhnCT7YDvDX-31" target="YfSGc-pqgDhnCT7YDvDX-35" edge="1">
          <mxGeometry width="60" relative="1" as="geometry">
            <mxPoint x="50" y="90" as="sourcePoint" />
            <mxPoint x="110" y="90" as="targetPoint" />
          </mxGeometry>
        </mxCell>
        <mxCell id="YfSGc-pqgDhnCT7YDvDX-67" value="5,创建发票" style="html=1;verticalAlign=bottom;startArrow=oval;startFill=1;endArrow=block;startSize=8;fillColor=#f8cecc;strokeColor=#b85450;strokeWidth=4;" parent="YfSGc-pqgDhnCT7YDvDX-31" target="YfSGc-pqgDhnCT7YDvDX-64" edge="1">
          <mxGeometry x="-0.0826" y="10" width="60" relative="1" as="geometry">
            <mxPoint x="50" y="500" as="sourcePoint" />
            <mxPoint x="110" y="500" as="targetPoint" />
            <Array as="points">
              <mxPoint x="290" y="500" />
            </Array>
            <mxPoint as="offset" />
          </mxGeometry>
        </mxCell>
        <mxCell id="YfSGc-pqgDhnCT7YDvDX-34" value="新能源/新宝骏/LLB APP" style="shape=umlLifeline;perimeter=lifelinePerimeter;whiteSpace=wrap;html=1;container=1;collapsible=0;recursiveResize=0;outlineConnect=0;align=center;fillColor=#dae8fc;strokeColor=#6c8ebf;" parent="1" vertex="1">
          <mxGeometry x="800" y="210" width="110" height="700" as="geometry" />
        </mxCell>
        <mxCell id="YfSGc-pqgDhnCT7YDvDX-41" value="" style="html=1;points=[];perimeter=orthogonalPerimeter;align=center;fillColor=#d5e8d4;strokeColor=#82b366;" parent="YfSGc-pqgDhnCT7YDvDX-34" vertex="1">
          <mxGeometry x="50" y="60" width="10" height="40" as="geometry" />
        </mxCell>
        <mxCell id="YfSGc-pqgDhnCT7YDvDX-54" value="" style="html=1;points=[];perimeter=orthogonalPerimeter;align=center;fillColor=#ffe6cc;strokeColor=#d79b00;" parent="YfSGc-pqgDhnCT7YDvDX-34" vertex="1">
          <mxGeometry x="50" y="352" width="10" height="50" as="geometry" />
        </mxCell>
        <mxCell id="YfSGc-pqgDhnCT7YDvDX-57" value="" style="html=1;points=[];perimeter=orthogonalPerimeter;align=center;fillColor=#f8cecc;strokeColor=#b85450;" parent="YfSGc-pqgDhnCT7YDvDX-34" vertex="1">
          <mxGeometry x="50" y="192" width="10" height="100" as="geometry" />
        </mxCell>
        <mxCell id="YfSGc-pqgDhnCT7YDvDX-35" value="数据商店" style="shape=umlLifeline;perimeter=lifelinePerimeter;whiteSpace=wrap;html=1;container=1;collapsible=0;recursiveResize=0;outlineConnect=0;align=center;fillColor=#f0a30a;strokeColor=#BD7000;fontColor=#ffffff;" parent="1" vertex="1">
          <mxGeometry x="1077" y="210" width="100" height="700" as="geometry" />
        </mxCell>
        <mxCell id="YfSGc-pqgDhnCT7YDvDX-66" value="" style="html=1;points=[];perimeter=orthogonalPerimeter;align=center;fillColor=#d5e8d4;strokeColor=#82b366;" parent="YfSGc-pqgDhnCT7YDvDX-35" vertex="1">
          <mxGeometry x="45" y="80" width="10" height="50" as="geometry" />
        </mxCell>
        <mxCell id="YfSGc-pqgDhnCT7YDvDX-37" value="APP后台" style="shape=umlLifeline;perimeter=lifelinePerimeter;whiteSpace=wrap;html=1;container=1;collapsible=0;recursiveResize=0;outlineConnect=0;align=center;fillColor=#dae8fc;strokeColor=#6c8ebf;" parent="1" vertex="1">
          <mxGeometry x="1207" y="210" width="100" height="700" as="geometry" />
        </mxCell>
        <mxCell id="YfSGc-pqgDhnCT7YDvDX-53" value="" style="html=1;points=[];perimeter=orthogonalPerimeter;align=center;fillColor=#ffe6cc;strokeColor=#d79b00;" parent="YfSGc-pqgDhnCT7YDvDX-37" vertex="1">
          <mxGeometry x="45" y="312" width="10" height="80" as="geometry" />
        </mxCell>
        <mxCell id="YfSGc-pqgDhnCT7YDvDX-56" value="通知APP" style="html=1;verticalAlign=bottom;startArrow=oval;startFill=1;endArrow=open;startSize=6;endSize=8;fillColor=#ffe6cc;strokeColor=#d79b00;" parent="YfSGc-pqgDhnCT7YDvDX-37" edge="1">
          <mxGeometry width="80" relative="1" as="geometry">
            <mxPoint x="53" y="372" as="sourcePoint" />
            <mxPoint x="-352.5" y="372" as="targetPoint" />
          </mxGeometry>
        </mxCell>
        <mxCell id="YfSGc-pqgDhnCT7YDvDX-40" value="支付" style="shape=umlLifeline;perimeter=lifelinePerimeter;whiteSpace=wrap;html=1;container=1;collapsible=0;recursiveResize=0;outlineConnect=0;align=center;fillColor=#dae8fc;strokeColor=#6c8ebf;" parent="1" vertex="1">
          <mxGeometry x="1347" y="210" width="100" height="700" as="geometry" />
        </mxCell>
        <mxCell id="YfSGc-pqgDhnCT7YDvDX-46" value="" style="html=1;points=[];perimeter=orthogonalPerimeter;align=center;fillColor=#d5e8d4;strokeColor=#82b366;" parent="YfSGc-pqgDhnCT7YDvDX-40" vertex="1">
          <mxGeometry x="45" y="152" width="10" height="40" as="geometry" />
        </mxCell>
        <mxCell id="YfSGc-pqgDhnCT7YDvDX-61" value="" style="html=1;points=[];perimeter=orthogonalPerimeter;align=center;fillColor=#f8cecc;strokeColor=#b85450;" parent="YfSGc-pqgDhnCT7YDvDX-40" vertex="1">
          <mxGeometry x="45" y="250" width="10" height="32" as="geometry" />
        </mxCell>
        <mxCell id="YfSGc-pqgDhnCT7YDvDX-44" value="APP 进入扫码充电" style="html=1;verticalAlign=bottom;startArrow=oval;endArrow=block;startSize=8;exitX=1.14;exitY=0.228;exitDx=0;exitDy=0;exitPerimeter=0;fillColor=#d5e8d4;strokeColor=#82b366;" parent="1" source="YfSGc-pqgDhnCT7YDvDX-41" target="YfSGc-pqgDhnCT7YDvDX-43" edge="1">
          <mxGeometry relative="1" as="geometry">
            <mxPoint x="930" y="352" as="sourcePoint" />
          </mxGeometry>
        </mxCell>
        <mxCell id="YfSGc-pqgDhnCT7YDvDX-47" value="支付" style="html=1;verticalAlign=bottom;startArrow=oval;startFill=1;endArrow=open;startSize=6;endSize=8;fillColor=#f8cecc;strokeColor=#b85450;entryX=0.12;entryY=0.169;entryDx=0;entryDy=0;entryPerimeter=0;" parent="1" source="YfSGc-pqgDhnCT7YDvDX-57" target="YfSGc-pqgDhnCT7YDvDX-61" edge="1">
          <mxGeometry width="80" relative="1" as="geometry">
            <mxPoint x="990" y="402" as="sourcePoint" />
            <mxPoint x="1370" y="462" as="targetPoint" />
            <Array as="points">
              <mxPoint x="990" y="462" />
            </Array>
          </mxGeometry>
        </mxCell>
        <mxCell id="YfSGc-pqgDhnCT7YDvDX-50" value="2,支付回调" style="html=1;verticalAlign=bottom;startArrow=oval;startFill=1;endArrow=open;startSize=6;endSize=8;fillColor=#f8cecc;strokeColor=#b85450;entryX=0.9;entryY=0.71;entryDx=0;entryDy=0;entryPerimeter=0;strokeWidth=3;" parent="1" source="YfSGc-pqgDhnCT7YDvDX-40" target="YfSGc-pqgDhnCT7YDvDX-60" edge="1">
          <mxGeometry width="80" relative="1" as="geometry">
            <mxPoint x="1380" y="483" as="sourcePoint" />
            <mxPoint x="1020" y="483" as="targetPoint" />
          </mxGeometry>
        </mxCell>
        <mxCell id="YfSGc-pqgDhnCT7YDvDX-63" value="4,发票查询" style="html=1;verticalAlign=bottom;startArrow=oval;startFill=1;endArrow=block;startSize=8;fillColor=#f8cecc;strokeColor=#b85450;strokeWidth=4;" parent="1" source="YfSGc-pqgDhnCT7YDvDX-31" target="YfSGc-pqgDhnCT7YDvDX-64" edge="1">
          <mxGeometry x="-0.0816" y="10" width="60" relative="1" as="geometry">
            <mxPoint x="990" y="702" as="sourcePoint" />
            <mxPoint x="1480" y="702" as="targetPoint" />
            <mxPoint x="1" as="offset" />
          </mxGeometry>
        </mxCell>
        <mxCell id="YfSGc-pqgDhnCT7YDvDX-68" value="发票后台" style="shape=umlLifeline;perimeter=lifelinePerimeter;whiteSpace=wrap;html=1;container=1;collapsible=0;recursiveResize=0;outlineConnect=0;align=center;fillColor=#dae8fc;strokeColor=#6c8ebf;" parent="1" vertex="1">
          <mxGeometry x="1490" y="210" width="100" height="700" as="geometry" />
        </mxCell>
        <mxCell id="YfSGc-pqgDhnCT7YDvDX-64" value="" style="html=1;points=[];perimeter=orthogonalPerimeter;align=center;fillColor=#f8cecc;strokeColor=#b85450;" parent="YfSGc-pqgDhnCT7YDvDX-68" vertex="1">
          <mxGeometry x="45" y="450" width="10" height="80" as="geometry" />
        </mxCell>
      </root>
    </mxGraphModel>
  </diagram>
  <diagram id="rm9jljR_l8_nrdW4VYQ5" name="第 2 页">
    <mxGraphModel dx="1038" dy="548" grid="1" gridSize="10" guides="1" tooltips="1" connect="1" arrows="1" fold="1" page="1" pageScale="1" pageWidth="827" pageHeight="1169" math="0" shadow="0">
      <root>
        <mxCell id="PNzMQlm8gOUKmiUg-7fn-0" />
        <mxCell id="PNzMQlm8gOUKmiUg-7fn-1" parent="PNzMQlm8gOUKmiUg-7fn-0" />
        <mxCell id="PNzMQlm8gOUKmiUg-7fn-11" value="" style="rounded=1;whiteSpace=wrap;html=1;fillColor=#ffe6cc;strokeColor=#d79b00;" vertex="1" parent="PNzMQlm8gOUKmiUg-7fn-1">
          <mxGeometry x="300" y="20" width="380" height="360" as="geometry" />
        </mxCell>
        <mxCell id="PNzMQlm8gOUKmiUg-7fn-6" style="edgeStyle=orthogonalEdgeStyle;rounded=0;orthogonalLoop=1;jettySize=auto;html=1;entryX=0;entryY=0.5;entryDx=0;entryDy=0;startArrow=oval;startFill=1;endArrow=oval;endFill=1;fillColor=#d5e8d4;strokeColor=#82b366;" edge="1" parent="PNzMQlm8gOUKmiUg-7fn-1" source="PNzMQlm8gOUKmiUg-7fn-2" target="PNzMQlm8gOUKmiUg-7fn-4">
          <mxGeometry relative="1" as="geometry" />
        </mxCell>
        <mxCell id="PNzMQlm8gOUKmiUg-7fn-12" style="edgeStyle=none;rounded=0;orthogonalLoop=1;jettySize=auto;html=1;dashed=1;startArrow=oval;startFill=1;endArrow=oval;endFill=1;entryX=0;entryY=0.25;entryDx=0;entryDy=0;strokeColor=#FF0000;" edge="1" parent="PNzMQlm8gOUKmiUg-7fn-1" source="PNzMQlm8gOUKmiUg-7fn-2" target="PNzMQlm8gOUKmiUg-7fn-5">
          <mxGeometry relative="1" as="geometry" />
        </mxCell>
        <mxCell id="PNzMQlm8gOUKmiUg-7fn-2" value="新宝骏&lt;br&gt;包名：com.cloudy.jun&lt;br&gt;app id：XXX" style="rounded=0;whiteSpace=wrap;html=1;fillColor=#d5e8d4;strokeColor=#82b366;" vertex="1" parent="PNzMQlm8gOUKmiUg-7fn-1">
          <mxGeometry x="50" y="70" width="160" height="60" as="geometry" />
        </mxCell>
        <mxCell id="PNzMQlm8gOUKmiUg-7fn-7" style="edgeStyle=orthogonalEdgeStyle;rounded=0;orthogonalLoop=1;jettySize=auto;html=1;entryX=0;entryY=0.5;entryDx=0;entryDy=0;startArrow=oval;startFill=1;endArrow=oval;endFill=1;fillColor=#d5e8d4;strokeColor=#82b366;" edge="1" parent="PNzMQlm8gOUKmiUg-7fn-1" source="PNzMQlm8gOUKmiUg-7fn-3" target="PNzMQlm8gOUKmiUg-7fn-5">
          <mxGeometry relative="1" as="geometry" />
        </mxCell>
        <mxCell id="PNzMQlm8gOUKmiUg-7fn-3" value="新能源&lt;br&gt;com.baojun.newterritory&lt;br&gt;appid:YYYY" style="rounded=0;whiteSpace=wrap;html=1;fillColor=#d5e8d4;strokeColor=#82b366;" vertex="1" parent="PNzMQlm8gOUKmiUg-7fn-1">
          <mxGeometry x="50" y="220" width="160" height="60" as="geometry" />
        </mxCell>
        <mxCell id="PNzMQlm8gOUKmiUg-7fn-9" style="rounded=0;orthogonalLoop=1;jettySize=auto;html=1;entryX=0;entryY=0.5;entryDx=0;entryDy=0;dashed=1;startArrow=classic;startFill=1;fillColor=#d5e8d4;strokeColor=#82b366;exitX=1;exitY=0.5;exitDx=0;exitDy=0;" edge="1" parent="PNzMQlm8gOUKmiUg-7fn-1" source="PNzMQlm8gOUKmiUg-7fn-4" target="PNzMQlm8gOUKmiUg-7fn-8">
          <mxGeometry relative="1" as="geometry" />
        </mxCell>
        <mxCell id="PNzMQlm8gOUKmiUg-7fn-4" value="&lt;span style=&quot;color: rgb(34, 34, 34); font-size: 14px; white-space: normal;&quot;&gt;APP的唯一标识APPID:XXXX&lt;/span&gt;" style="rounded=0;whiteSpace=wrap;html=1;fillColor=#f8cecc;strokeColor=#b85450;labelBackgroundColor=none;" vertex="1" parent="PNzMQlm8gOUKmiUg-7fn-1">
          <mxGeometry x="330" y="70" width="120" height="60" as="geometry" />
        </mxCell>
        <mxCell id="PNzMQlm8gOUKmiUg-7fn-10" style="rounded=0;orthogonalLoop=1;jettySize=auto;html=1;startArrow=classic;startFill=1;entryX=0;entryY=0.75;entryDx=0;entryDy=0;fillColor=#d5e8d4;strokeColor=#82b366;exitX=1;exitY=0.5;exitDx=0;exitDy=0;" edge="1" parent="PNzMQlm8gOUKmiUg-7fn-1" source="PNzMQlm8gOUKmiUg-7fn-5" target="PNzMQlm8gOUKmiUg-7fn-8">
          <mxGeometry relative="1" as="geometry" />
        </mxCell>
        <mxCell id="PNzMQlm8gOUKmiUg-7fn-5" value="&lt;span style=&quot;color: rgb(34, 34, 34); font-size: 14px; white-space: normal;&quot;&gt;APP的唯一标识APPID:YYYY&lt;/span&gt;" style="rounded=0;whiteSpace=wrap;html=1;fillColor=#f8cecc;strokeColor=#b85450;labelBackgroundColor=none;" vertex="1" parent="PNzMQlm8gOUKmiUg-7fn-1">
          <mxGeometry x="330" y="220" width="120" height="60" as="geometry" />
        </mxCell>
        <mxCell id="PNzMQlm8gOUKmiUg-7fn-8" value="&lt;span style=&quot;color: rgb(51, 51, 51); font-size: 14px; white-space: pre-wrap;&quot;&gt;商户号&lt;/span&gt;" style="rounded=0;whiteSpace=wrap;html=1;fillColor=#d5e8d4;strokeColor=#82b366;labelBackgroundColor=none;" vertex="1" parent="PNzMQlm8gOUKmiUg-7fn-1">
          <mxGeometry x="550" y="130" width="120" height="60" as="geometry" />
        </mxCell>
        <mxCell id="PNzMQlm8gOUKmiUg-7fn-13" value="" style="endArrow=none;html=1;strokeColor=#FF0000;" edge="1" parent="PNzMQlm8gOUKmiUg-7fn-1">
          <mxGeometry width="50" height="50" relative="1" as="geometry">
            <mxPoint x="200" y="200" as="sourcePoint" />
            <mxPoint x="250" y="150" as="targetPoint" />
          </mxGeometry>
        </mxCell>
        <mxCell id="PNzMQlm8gOUKmiUg-7fn-14" value="" style="endArrow=none;html=1;strokeColor=#FF0000;" edge="1" parent="PNzMQlm8gOUKmiUg-7fn-1">
          <mxGeometry width="50" height="50" relative="1" as="geometry">
            <mxPoint x="240" y="210" as="sourcePoint" />
            <mxPoint x="220" y="140" as="targetPoint" />
          </mxGeometry>
        </mxCell>
      </root>
    </mxGraphModel>
  </diagram>
</mxfile>
